<svg xmlns="http://www.w3.org/2000/svg" xmlns:xlink="http://www.w3.org/1999/xlink" width="2000" zoomAndPan="magnify" viewBox="0 0 1500 374.999991" height="500" preserveAspectRatio="xMidYMid meet" version="1.0"><defs><g><g id="id1"/></g></defs><g fill="rgb(12.939453%, 12.939453%, 12.939453%)" fill-opacity="1"><g transform="translate(23.809754, 259.619176)"><g><path d="M 82.09375 3.203125 C 72.675781 3.203125 63.390625 1.378906 54.234375 -2.265625 C 45.085938 -5.910156 36.867188 -11.195312 29.578125 -18.125 C 22.296875 -25.050781 16.429688 -33.535156 11.984375 -43.578125 C 7.546875 -53.617188 5.328125 -65.035156 5.328125 -77.828125 C 5.328125 -90.804688 7.503906 -102.3125 11.859375 -112.34375 C 16.210938 -122.382812 21.988281 -130.867188 29.1875 -137.796875 C 36.382812 -144.734375 44.644531 -150.019531 53.96875 -153.65625 C 63.300781 -157.300781 72.851562 -159.125 82.625 -159.125 C 92.9375 -159.125 102.441406 -157.171875 111.140625 -153.265625 C 119.847656 -149.359375 127.046875 -144.023438 132.734375 -137.265625 L 132.734375 -155.9375 L 168.71875 -155.9375 L 168.71875 0 L 132.734375 0 L 132.734375 -20.25 C 127.046875 -12.96875 119.757812 -7.238281 110.875 -3.0625 C 102 1.113281 92.40625 3.203125 82.09375 3.203125 Z M 87.953125 -29.859375 C 94.710938 -29.859375 100.929688 -31.097656 106.609375 -33.578125 C 112.296875 -36.066406 117.179688 -39.53125 121.265625 -43.96875 C 125.359375 -48.414062 128.601562 -53.570312 131 -59.4375 C 133.40625 -65.300781 134.609375 -71.609375 134.609375 -78.359375 C 134.609375 -84.941406 133.40625 -91.160156 131 -97.015625 C 128.601562 -102.878906 125.359375 -107.988281 121.265625 -112.34375 C 117.179688 -116.695312 112.296875 -120.117188 106.609375 -122.609375 C 100.929688 -125.097656 94.710938 -126.34375 87.953125 -126.34375 C 81.378906 -126.34375 75.203125 -125.097656 69.421875 -122.609375 C 63.648438 -120.117188 58.632812 -116.738281 54.375 -112.46875 C 50.113281 -108.207031 46.78125 -103.144531 44.375 -97.28125 C 41.976562 -91.425781 40.78125 -85.117188 40.78125 -78.359375 C 40.78125 -71.609375 41.976562 -65.253906 44.375 -59.296875 C 46.78125 -53.347656 50.113281 -48.195312 54.375 -43.84375 C 58.632812 -39.488281 63.648438 -36.066406 69.421875 -33.578125 C 75.203125 -31.097656 81.378906 -29.859375 87.953125 -29.859375 Z M 87.953125 -29.859375 "/></g></g></g><g fill="rgb(12.939453%, 12.939453%, 12.939453%)" fill-opacity="1"><g transform="translate(228.247681, 259.619176)"><g><path d="M 97.015625 3.203125 C 86.359375 3.203125 76.585938 1.335938 67.703125 -2.390625 C 58.816406 -6.128906 51.617188 -11.460938 46.109375 -18.390625 L 46.109375 71.703125 L 10.390625 71.703125 L 10.390625 -155.9375 L 46.109375 -155.9375 L 46.109375 -135.140625 C 51.617188 -142.421875 58.769531 -148.238281 67.5625 -152.59375 C 76.363281 -156.945312 86.09375 -159.125 96.75 -159.125 C 106.53125 -159.125 116.039062 -157.300781 125.28125 -153.65625 C 134.519531 -150.019531 142.691406 -144.734375 149.796875 -137.796875 C 156.910156 -130.867188 162.640625 -122.382812 166.984375 -112.34375 C 171.335938 -102.3125 173.515625 -90.804688 173.515625 -77.828125 C 173.515625 -65.035156 171.289062 -53.617188 166.84375 -43.578125 C 162.40625 -33.535156 156.585938 -25.050781 149.390625 -18.125 C 142.203125 -11.195312 134.03125 -5.910156 124.875 -2.265625 C 115.726562 1.378906 106.441406 3.203125 97.015625 3.203125 Z M 91.15625 -29.859375 C 97.726562 -29.859375 103.859375 -31.097656 109.546875 -33.578125 C 115.234375 -36.066406 120.207031 -39.488281 124.46875 -43.84375 C 128.738281 -48.195312 132.070312 -53.347656 134.46875 -59.296875 C 136.875 -65.253906 138.078125 -71.609375 138.078125 -78.359375 C 138.078125 -85.117188 136.875 -91.425781 134.46875 -97.28125 C 132.070312 -103.144531 128.738281 -108.207031 124.46875 -112.46875 C 120.207031 -116.738281 115.234375 -120.117188 109.546875 -122.609375 C 103.859375 -125.097656 97.726562 -126.34375 91.15625 -126.34375 C 84.40625 -126.34375 78.1875 -125.097656 72.5 -122.609375 C 66.8125 -120.117188 61.921875 -116.695312 57.828125 -112.34375 C 53.742188 -107.988281 50.546875 -102.878906 48.234375 -97.015625 C 45.929688 -91.160156 44.78125 -84.941406 44.78125 -78.359375 C 44.78125 -71.609375 45.929688 -65.300781 48.234375 -59.4375 C 50.546875 -53.570312 53.742188 -48.414062 57.828125 -43.96875 C 61.921875 -39.53125 66.8125 -36.066406 72.5 -33.578125 C 78.1875 -31.097656 84.40625 -29.859375 91.15625 -29.859375 Z M 91.15625 -29.859375 "/></g></g></g><g fill="rgb(12.939453%, 12.939453%, 12.939453%)" fill-opacity="1"><g transform="translate(431.885988, 259.619176)"><g><path d="M 10.390625 -197.25 L 46.375 -197.25 L 46.375 -80.765625 L 112.75 -155.9375 L 155.9375 -155.9375 L 95.6875 -88.5 L 158.0625 0 L 117.8125 0 L 71.171875 -67.171875 L 46.375 -39.71875 L 46.375 0 L 10.390625 0 Z M 10.390625 -197.25 "/></g></g></g><g fill="rgb(12.939453%, 12.939453%, 12.939453%)" fill-opacity="1"><g transform="translate(617.665978, 259.619176)"><g><path d="M 10.390625 -155.9375 L 46.109375 -155.9375 L 46.109375 -137.8125 C 51.085938 -144.382812 57.351562 -149.578125 64.90625 -153.390625 C 72.457031 -157.210938 81.03125 -159.125 90.625 -159.125 C 102.882812 -159.125 113.234375 -156.769531 121.671875 -152.0625 C 130.117188 -147.351562 136.648438 -140.734375 141.265625 -132.203125 C 146.597656 -140.378906 153.660156 -146.910156 162.453125 -151.796875 C 171.253906 -156.679688 181.253906 -159.125 192.453125 -159.125 C 213.421875 -159.125 229.234375 -153.300781 239.890625 -141.65625 C 250.554688 -130.019531 255.890625 -114.078125 255.890625 -93.828125 L 255.890625 0 L 219.109375 0 L 219.109375 -90.890625 C 219.109375 -102.265625 216.265625 -111.28125 210.578125 -117.9375 C 204.890625 -124.601562 196.445312 -127.9375 185.25 -127.9375 C 175.476562 -127.9375 167.300781 -124.5625 160.71875 -117.8125 C 154.144531 -111.0625 150.859375 -100.84375 150.859375 -87.15625 L 150.859375 0 L 114.34375 0 L 114.34375 -91.953125 C 114.34375 -103.148438 111.585938 -111.945312 106.078125 -118.34375 C 100.578125 -124.738281 92.40625 -127.9375 81.5625 -127.9375 C 71.4375 -127.9375 63.039062 -124.472656 56.375 -117.546875 C 49.707031 -110.617188 46.375 -100.222656 46.375 -86.359375 L 46.375 0 L 10.390625 0 Z M 10.390625 -155.9375 "/></g></g></g><g fill="rgb(12.939453%, 12.939453%, 12.939453%)" fill-opacity="1"><g transform="translate(909.263154, 259.619176)"><g><path d="M 86.09375 3.203125 C 74.894531 3.203125 64.363281 1.113281 54.5 -3.0625 C 44.644531 -7.238281 36.070312 -13.015625 28.78125 -20.390625 C 21.5 -27.765625 15.769531 -36.382812 11.59375 -46.25 C 7.414062 -56.113281 5.328125 -66.640625 5.328125 -77.828125 C 5.328125 -89.203125 7.414062 -99.820312 11.59375 -109.6875 C 15.769531 -119.550781 21.5 -128.164062 28.78125 -135.53125 C 36.070312 -142.90625 44.644531 -148.679688 54.5 -152.859375 C 64.363281 -157.035156 74.894531 -159.125 86.09375 -159.125 C 97.289062 -159.125 107.773438 -157.035156 117.546875 -152.859375 C 127.316406 -148.679688 135.890625 -142.90625 143.265625 -135.53125 C 150.640625 -128.164062 156.414062 -119.550781 160.59375 -109.6875 C 164.769531 -99.820312 166.859375 -89.203125 166.859375 -77.828125 C 166.859375 -66.640625 164.769531 -56.113281 160.59375 -46.25 C 156.414062 -36.382812 150.640625 -27.765625 143.265625 -20.390625 C 135.890625 -13.015625 127.316406 -7.238281 117.546875 -3.0625 C 107.773438 1.113281 97.289062 3.203125 86.09375 3.203125 Z M 86.09375 -30.65625 C 92.488281 -30.65625 98.441406 -31.894531 103.953125 -34.375 C 109.460938 -36.863281 114.257812 -40.238281 118.34375 -44.5 C 122.4375 -48.769531 125.632812 -53.789062 127.9375 -59.5625 C 130.25 -65.34375 131.40625 -71.429688 131.40625 -77.828125 C 131.40625 -84.398438 130.25 -90.570312 127.9375 -96.34375 C 125.632812 -102.125 122.4375 -107.144531 118.34375 -111.40625 C 114.257812 -115.675781 109.460938 -119.054688 103.953125 -121.546875 C 98.441406 -124.035156 92.488281 -125.28125 86.09375 -125.28125 C 79.695312 -125.28125 73.695312 -124.035156 68.09375 -121.546875 C 62.5 -119.054688 57.703125 -115.675781 53.703125 -111.40625 C 49.710938 -107.144531 46.5625 -102.125 44.25 -96.34375 C 41.9375 -90.570312 40.78125 -84.398438 40.78125 -77.828125 C 40.78125 -71.429688 41.9375 -65.34375 44.25 -59.5625 C 46.5625 -53.789062 49.710938 -48.769531 53.703125 -44.5 C 57.703125 -40.238281 62.5 -36.863281 68.09375 -34.375 C 73.695312 -31.894531 79.695312 -30.65625 86.09375 -30.65625 Z M 86.09375 -30.65625 "/></g></g></g><g fill="rgb(12.939453%, 12.939453%, 12.939453%)" fill-opacity="1"><g transform="translate(1107.037556, 259.619176)"><g><path d="M 82.09375 3.203125 C 72.675781 3.203125 63.390625 1.378906 54.234375 -2.265625 C 45.085938 -5.910156 36.867188 -11.195312 29.578125 -18.125 C 22.296875 -25.050781 16.429688 -33.535156 11.984375 -43.578125 C 7.546875 -53.617188 5.328125 -65.035156 5.328125 -77.828125 C 5.328125 -90.804688 7.503906 -102.3125 11.859375 -112.34375 C 16.210938 -122.382812 21.988281 -130.867188 29.1875 -137.796875 C 36.382812 -144.734375 44.644531 -150.019531 53.96875 -153.65625 C 63.300781 -157.300781 72.851562 -159.125 82.625 -159.125 C 92.757812 -159.125 102.175781 -157.210938 110.875 -153.390625 C 119.582031 -149.578125 126.78125 -144.289062 132.46875 -137.53125 L 132.46875 -197.25 L 168.71875 -197.25 L 168.71875 0 L 132.734375 0 L 132.734375 -20.25 C 127.046875 -12.96875 119.757812 -7.238281 110.875 -3.0625 C 102 1.113281 92.40625 3.203125 82.09375 3.203125 Z M 87.953125 -29.859375 C 94.710938 -29.859375 100.929688 -31.097656 106.609375 -33.578125 C 112.296875 -36.066406 117.179688 -39.53125 121.265625 -43.96875 C 125.359375 -48.414062 128.601562 -53.570312 131 -59.4375 C 133.40625 -65.300781 134.609375 -71.609375 134.609375 -78.359375 C 134.609375 -84.941406 133.40625 -91.160156 131 -97.015625 C 128.601562 -102.878906 125.359375 -107.988281 121.265625 -112.34375 C 117.179688 -116.695312 112.296875 -120.117188 106.609375 -122.609375 C 100.929688 -125.097656 94.710938 -126.34375 87.953125 -126.34375 C 81.378906 -126.34375 75.203125 -125.097656 69.421875 -122.609375 C 63.648438 -120.117188 58.632812 -116.738281 54.375 -112.46875 C 50.113281 -108.207031 46.78125 -103.144531 44.375 -97.28125 C 41.976562 -91.425781 40.78125 -85.117188 40.78125 -78.359375 C 40.78125 -71.609375 41.976562 -65.253906 44.375 -59.296875 C 46.78125 -53.347656 50.113281 -48.195312 54.375 -43.84375 C 58.632812 -39.488281 63.648438 -36.066406 69.421875 -33.578125 C 75.203125 -31.097656 81.378906 -29.859375 87.953125 -29.859375 Z M 87.953125 -29.859375 "/></g></g></g><g fill="rgb(12.939453%, 12.939453%, 12.939453%)" fill-opacity="1"><g transform="translate(1311.475437, 259.619176)"><g><path d="M 65.578125 -7.734375 L 1.59375 -155.9375 L 39.984375 -155.9375 L 83.421875 -50.90625 L 124.484375 -155.9375 L 162.328125 -155.9375 L 69.296875 71.96875 L 32.78125 71.96875 Z M 65.578125 -7.734375 "/></g></g></g></svg>