<?xml version="1.0" encoding="UTF-8"?>
<svg width="50px" height="47px" viewBox="0 0 50 47" version="1.1" xmlns="http://www.w3.org/2000/svg" xmlns:xlink="http://www.w3.org/1999/xlink">
    <title>切片</title>
    <g id="happymod分享" stroke="none" stroke-width="1" fill="none" fill-rule="evenodd">
        <rect id="矩形" fill="#F8C019" x="0" y="0" width="50" height="47"></rect>
        <g id="MediumLogo" transform="translate(9.000000, 14.000000)" fill="#000000" fill-rule="nonzero">
            <path d="M8.53333333,2.11764705 C5.06666666,2.11764705 2.13333333,5.12894118 2.13333333,9 C2.13333333,12.8710588 5.06666666,15.8823529 8.53333333,15.8823529 C12,15.8823529 14.9333333,12.8710588 14.9333333,9 C14.9333333,5.12894118 12,2.11764705 8.53333333,2.11764705 Z M0,9 C0,4.09976472 3.75253333,0 8.53333333,0 C13.3141333,0 17.0666667,4.09976469 17.0666667,9 C17.0666667,13.9002353 13.3141333,18 8.53333333,18 C3.75253333,18 0,13.9002353 0,9 Z M22.1845333,4.17599999 C21.6746667,5.35764708 21.3333333,7.06235293 21.3333333,9 C21.3333333,10.9376471 21.6746667,12.6423529 22.1845333,13.824 C22.4405334,14.4158823 22.7178667,14.8277647 22.9706667,15.0755294 C23.2192,15.3190588 23.3856,15.3529412 23.4666667,15.3529412 C23.5477333,15.3529412 23.7141333,15.3190588 23.9626667,15.0755294 C24.2165333,14.8277647 24.4928,14.4158823 24.7488,13.824 C25.2586667,12.6423529 25.6,10.9376471 25.6,9 C25.6,7.06235293 25.2586667,5.35764708 24.7488,4.17599999 C24.4928,3.5830588 24.2154666,3.1722353 23.9626667,2.92447059 C23.7141333,2.68094116 23.5477333,2.64705884 23.4666667,2.64705884 C23.3856,2.64705884 23.2192,2.6809412 22.9706667,2.92447059 C22.7168,3.1722353 22.4405333,3.58411765 22.1845333,4.17599999 L22.1845333,4.17599999 Z M21.472,1.4167059 C21.9893334,0.910588248 22.6645334,0.529411781 23.4666667,0.529411781 C24.2688,0.529411781 24.9450667,0.910588248 25.4613333,1.4167059 C25.9733333,1.91858826 26.3861334,2.592 26.7093333,3.34164708 C27.3578667,4.84411766 27.7333333,6.84529414 27.7333333,9 C27.7333333,11.1547059 27.3578667,13.1558823 26.7093333,14.6583529 C26.3861333,15.4069411 25.9733333,16.0803529 25.4613333,16.5832941 C24.944,17.0894118 24.2688,17.4705882 23.4666667,17.4705882 C22.6645333,17.4705882 21.9882667,17.0894118 21.472,16.5832941 C20.96,16.0814117 20.5472,15.408 20.224,14.6583529 C19.5754667,13.1558823 19.2,11.1547059 19.2,9 C19.2,6.84529414 19.5754667,4.84411766 20.224,3.34164708 C20.5472,2.59305885 20.96,1.91858826 21.472,1.4167059 Z M30.9333333,0.529411781 C31.5224371,0.529411781 32,1.00346322 32,1.58823531 L32,16.4117647 C32,16.9965368 31.5224371,17.4705882 30.9333333,17.4705882 C30.3442296,17.4705882 29.8666667,16.9965368 29.8666667,16.4117647 L29.8666667,1.58823531 C29.8666667,1.00346322 30.3442296,0.529411781 30.9333333,0.529411781 L30.9333333,0.529411781 Z" id="形状"></path>
        </g>
        <ellipse id="椭圆形" fill="#000000" cx="17.9921182" cy="23.2093596" rx="7" ry="7.5"></ellipse>
        <ellipse id="椭圆形" fill="#000000" cx="32.0246305" cy="22.9704433" rx="3.03251232" ry="6.73891626"></ellipse>
    </g>
</svg>