<?xml version="1.0" encoding="UTF-8"?>
<svg width="50px" height="47px" viewBox="0 0 50 47" version="1.1" xmlns="http://www.w3.org/2000/svg" xmlns:xlink="http://www.w3.org/1999/xlink">
    <title>切片</title>
    <g id="happymod分享" stroke="none" stroke-width="1" fill="none" fill-rule="evenodd">
        <rect id="矩形" fill="#C31F00" x="0" y="0" width="50" height="47"></rect>
        <g id="quora" transform="translate(12.000000, 9.000000)" fill="#FFFFFF" fill-rule="nonzero">
            <path d="M0,12.6149084 C0,19.5836558 5.37056731,25.2292496 12.0001868,25.2292496 C12.973834,25.2292496 13.9220702,25.1035231 14.8271454,24.8720161 C15.9664303,27.0211835 17.7026836,28.5434199 21.3876324,27.8160966 L21.3876324,25.6778003 C21.3876324,25.6778003 19.0224603,25.0616458 18.3047902,23.3461876 C21.7230185,21.1239476 24,17.1481533 24,12.6149084 C24,5.64757899 18.6257892,0 12.0002803,0 C5.37056731,0 0,5.64757899 0,12.6149084 L0,12.6149084 Z M6,10.8745251 C6,6.5249451 8.68773957,3 12.0017832,3 C15.3141808,3 18,6.5249451 18,10.8745251 L18,14.127651 C18,16.2363548 17.3683007,18.148361 16.3393661,19.5624262 C15.0494487,18.1046504 13.025414,16.9059212 10.4576497,17.0590974 L10.4576497,19.5404763 C10.4576497,19.5404763 12.1993949,19.6153141 13.3923811,21.7864616 C12.9441197,21.9251622 12.479947,22 12.0016917,22 C8.68764812,22 6,18.4768525 6,14.127651 L6,10.8745251 L6,10.8745251 Z" id="形状"></path>
        </g>
    </g>
</svg>