<?xml version="1.0" encoding="UTF-8"?>
<svg width="50px" height="47px" viewBox="0 0 50 47" version="1.1" xmlns="http://www.w3.org/2000/svg" xmlns:xlink="http://www.w3.org/1999/xlink">
    <title>切片</title>
    <g id="happymod分享" stroke="none" stroke-width="1" fill="none" fill-rule="evenodd">
        <rect id="矩形" fill="#FF4500" x="0" y="0" width="50" height="47"></rect>
        <g id="reddit" transform="translate(10.000000, 9.000000)" fill="#FFFFFF" fill-rule="nonzero">
            <path d="M20.0362406,18 C18.9744956,18 18.0832497,17.1424286 18.0832497,16.0855714 C18.0832497,15.0287143 18.9744956,14.1428572 20.0362406,14.1428572 C21.0979857,14.1428572 21.9582318,15.0287143 21.9582318,16.0855714 C21.9582318,17.1424286 21.0979857,18 20.0362406,18 M20.4276138,21.7915714 C19.3852437,22.7005714 17.7797094,23.1428571 15.5154282,23.1428571 L15.4831367,23.1428571 C13.2201472,23.1428571 11.6146129,22.7005714 10.5735344,21.7915714 C10.4213757,21.6675172 10.3331471,21.4820639 10.3331471,21.2862857 C10.3331471,21.0905076 10.4213757,20.9050543 10.5735344,20.781 C10.9079868,20.5022081 11.3951183,20.5022081 11.7295707,20.781 C12.4477341,21.4084286 13.6761034,21.7144286 15.4831367,21.7144286 L15.5154282,21.7144286 C17.3237532,21.7144286 18.5521225,21.4084286 19.2715775,20.781 C19.6058389,20.5016852 20.0933525,20.5016852 20.4276138,20.781 C20.5789242,20.9055687 20.6665194,21.0908327 20.6665194,21.2862857 C20.6665194,21.4817387 20.5789242,21.6670027 20.4276138,21.7915714 M9.04162485,16.0842857 C9.04162485,15.03 9.93287073,14.1428572 10.9933241,14.1428572 C12.0550692,14.1428572 12.9166069,15.03 12.9166069,16.0855714 C12.9158945,17.1425873 12.0552287,17.9992909 10.9933241,18 C9.93287073,18 9.04162485,17.1424286 9.04162485,16.0855714 M25.8332138,2.57142859 C26.5241322,2.60219278 27.068387,3.16871757 27.068387,3.85714287 C27.068387,4.54556817 26.5241322,5.11209297 25.8332138,5.14285715 C25.1215088,5.14285715 24.5415532,4.56557145 24.5415532,3.85714286 C24.5415532,3.1487143 25.1215088,2.57142859 25.8332138,2.57142859 M30.999929,13.2094286 C30.999929,11.0815715 29.3284477,9.35228573 27.2747072,9.35228573 C26.384753,9.35228573 25.5684234,9.67628573 24.926468,10.2175714 C22.6557285,8.73899999 19.7727419,7.84799999 16.6817978,7.65900002 L18.2937904,2.38114287 L22.7241866,3.46114287 C22.840436,5.13257145 24.1889298,6.45428572 25.8306305,6.45428572 C27.5485392,6.45428572 28.9461161,5.00657143 28.9461161,3.22714288 C28.9461161,1.44771433 27.5485392,0 25.8306305,0 C24.6293861,0 23.5844326,0.707142867 23.065185,1.74214288 L17.9153338,0.488571449 C17.4776468,0.388057356 17.0377441,0.647163169 16.9155884,1.07742858 L14.9135143,7.62942857 C11.5836131,7.71299999 8.45391922,8.60657144 6.01526385,10.1725714 C5.36967887,9.64371849 4.55995346,9.35385011 3.72385778,9.35228573 C1.67140895,9.35100001 0,11.0828572 0,13.2094286 C0,14.5247143 0.639372043,15.6882857 1.61328421,16.3851429 C1.57220039,16.6920225 1.55148889,17.0012647 1.5512845,17.3108571 C1.5512845,19.9697143 3.0431526,22.4447143 5.75434838,24.2755714 C8.35187804,26.0331429 11.7915705,27 15.4366369,27 C19.0817034,27 22.5213958,26.0331429 25.1202171,24.2755714 C27.8301213,22.4447143 29.323281,19.9697143 29.323281,17.3108571 C29.323281,17.0267143 29.3039061,16.7451429 29.2716146,16.4648572 C30.3590322,15.7362711 31.0078132,14.5141851 30.999929,13.2094286" id="形状"></path>
        </g>
    </g>
</svg>