<?xml version="1.0" encoding="UTF-8"?>
<svg width="50px" height="47px" viewBox="0 0 50 47" version="1.1" xmlns="http://www.w3.org/2000/svg" xmlns:xlink="http://www.w3.org/1999/xlink">
    <title>切片</title>
    <g id="happymod分享" stroke="none" stroke-width="1" fill="none" fill-rule="evenodd">
        <rect id="矩形" fill="#0F4260" x="0" y="0" width="50" height="47"></rect>
        <g id="tumblr" transform="translate(18.000000, 13.000000)" fill="#FFFFFF" fill-rule="nonzero">
            <path d="M3.11053573,19.033788 C3.30942581,19.563734 3.66349549,20.0635989 4.17968873,20.5333086 C4.69171558,21.0002701 5.31097204,21.3640648 6.03884691,21.6205334 C6.76525988,21.8726941 7.32384792,22 8.27181027,22 C9.10406405,22 9.8798158,21.9097569 10.5964341,21.7321675 C11.3143681,21.554578 12.1170186,21.2423295 13,20.7998042 L13,17.3320932 C11.9633009,18.055449 10.9195117,18.4177583 9.87287183,18.4177583 C9.28190293,18.4177583 8.76125093,18.2702498 8.30148663,17.9780554 C7.95589591,17.7631803 7.63859276,17.3893585 7.51294335,17.0297974 C7.38605132,16.6689737 7.40154735,15.9326941 7.40154735,14.6565159 L7.40154735,9.01494936 L12.1876279,9.01494936 L12.1876279,5.08755571 L7.40140117,5.08755571 L7.40140117,0 L4.45759395,0 C4.32500056,1.13438893 4.08239997,2.06972316 3.73118098,2.80303174 C3.37996199,3.53782579 2.91588512,4.16663065 2.33478398,4.69234301 C1.75638733,5.21656989 0.812445179,5.61906144 0,5.89974342 L0,9.01502363 L2.81296809,9.01502363 L2.81296809,16.7304727 C2.81289499,17.7361445 2.91164564,18.5037677 3.11053573,19.033788 Z" id="路径"></path>
        </g>
    </g>
</svg>